<?xml version="1.0" standalone="no"?><!-- Generator: Gravit.io --><svg xmlns="http://www.w3.org/2000/svg" xmlns:xlink="http://www.w3.org/1999/xlink" style="isolation:isolate" viewBox="0 2071 360 259" width="360" height="259"><g id="6533 [Converted]"><rect x="0" y="2071" width="360" height="259" transform="matrix(1,0,0,1,0,0)" fill="rgb(250,250,250)"/><path d=" M 249.55 2144.869 L 249.325 2143.655 C 251.969 2143.407 253.833 2141.663 253.487 2139.761 C 253.142 2137.859 250.719 2136.518 248.075 2136.766 L 247.85 2135.552 C 250.223 2135.244 252.64 2135.902 254.136 2137.262 C 255.633 2138.623 255.966 2140.466 255.004 2142.057 C 254.043 2143.648 251.941 2144.729 249.538 2144.869 L 249.55 2144.869 Z " fill="rgb(198,193,193)"/><path d=" M 88.225 2274.18 C 84.842 2274.177 81.726 2272.86 80.075 2270.736 L 82.2 2269.881 C 84.122 2272.16 88.204 2272.937 91.441 2271.64 C 94.677 2270.342 95.907 2267.436 94.225 2265.061 L 96.35 2264.207 C 97.95 2266.282 97.909 2268.81 96.24 2270.857 C 94.571 2272.904 91.523 2274.164 88.225 2274.171 L 88.225 2274.18 Z " fill="rgb(198,193,193)"/><path d=" M 304.225 2233.37 C 300.345 2230.834 300.057 2226.516 303.581 2223.725 C 307.106 2220.933 313.108 2220.726 316.987 2223.261 L 315.325 2224.583 C 312.457 2222.711 308.021 2222.866 305.419 2224.93 C 302.816 2226.993 303.032 2230.184 305.9 2232.057 L 304.225 2233.37 Z " fill="rgb(198,193,193)"/><path d=" M 100.95 2088.743 C 98.189 2088.8 95.886 2087.236 95.806 2085.249 C 95.727 2083.263 97.901 2081.606 100.662 2081.549 L 100.737 2082.448 C 99.276 2082.362 97.878 2082.896 97.16 2083.816 C 96.442 2084.736 96.535 2085.873 97.399 2086.726 C 98.262 2087.578 99.738 2087.991 101.175 2087.781 L 101.25 2088.68 L 100.95 2088.743 Z " fill="rgb(198,193,193)"/><path d=" M 346.563 2210.437 L 345.525 2209.412 C 347.134 2208.706 348.055 2207.408 347.905 2206.056 C 347.756 2204.704 346.562 2203.528 344.818 2203.013 C 343.074 2202.498 341.076 2202.733 339.65 2203.621 L 338.613 2202.595 C 341.619 2201.016 345.836 2201.489 348.031 2203.652 C 350.227 2205.815 349.569 2208.849 346.563 2210.428 L 346.563 2210.437 Z " fill="rgb(198,193,193)"/><path d=" M 202.213 2235.573 L 200.775 2233.972 C 204.261 2232.358 205.269 2229.016 203.025 2226.508 C 200.781 2224 196.136 2223.275 192.65 2224.889 L 191.25 2223.261 C 195.975 2221.084 202.26 2222.074 205.287 2225.474 C 208.315 2228.873 206.938 2233.395 202.213 2235.573 L 202.213 2235.573 Z " fill="rgb(198,193,193)"/><path d=" M 13.275 2102.611 C 11.495 2102.613 9.838 2101.958 8.888 2100.875 L 10 2100.353 C 11.125 2101.64 13.487 2102.026 15.275 2101.217 C 17.063 2100.407 17.6 2098.708 16.475 2097.422 L 17.613 2096.909 C 18.612 2098.055 18.668 2099.502 17.759 2100.687 C 16.85 2101.872 15.119 2102.608 13.238 2102.611 L 13.275 2102.611 Z " fill="rgb(198,193,193)"/><path d=" M 333.575 2123.537 C 331.441 2121.445 331.981 2118.514 334.799 2116.895 C 337.618 2115.275 341.71 2115.543 344.075 2117.503 L 342.7 2118.294 C 340.907 2116.939 337.968 2116.798 335.942 2117.972 C 333.916 2119.146 333.479 2121.241 334.938 2122.791 L 333.575 2123.537 Z " fill="rgb(198,193,193)"/><path d=" M 150.15 2232.767 C 145.863 2230.041 145.351 2225.362 148.992 2222.187 C 152.633 2219.012 159.116 2218.485 163.65 2220.995 L 161.887 2222.533 C 160.283 2221.581 158.219 2221.126 156.149 2221.27 C 154.078 2221.413 152.172 2222.142 150.85 2223.297 C 148.101 2225.702 148.576 2229.255 151.912 2231.238 L 150.15 2232.767 Z " fill="rgb(198,193,193)"/><path d=" M 296.637 2087.035 L 296.637 2087.035 C 298.666 2087.028 300.381 2088.114 300.627 2089.563 C 300.873 2091.012 299.573 2092.364 297.601 2092.709 C 295.63 2093.053 293.612 2092.282 292.906 2090.913 C 292.201 2089.545 293.031 2088.013 294.837 2087.349 C 295.395 2087.144 296.011 2087.036 296.637 2087.035 Z  M 296.637 2085.749 C 294.055 2085.751 291.788 2086.986 291.086 2088.774 C 290.384 2090.563 291.418 2092.469 293.618 2093.442 C 295.818 2094.416 298.649 2094.22 300.551 2092.963 C 302.453 2091.705 302.963 2089.692 301.8 2088.033 C 300.822 2086.628 298.822 2085.743 296.637 2085.749 Z " fill="rgb(198,193,193)"/><path d=" M 68.663 2167.783 L 69 2167.783 C 70.722 2167.891 72.016 2168.961 71.929 2170.203 C 71.841 2171.445 70.403 2172.414 68.675 2172.397 L 68.337 2172.397 C 66.664 2172.247 65.436 2171.193 65.525 2169.981 C 65.614 2168.77 66.989 2167.814 68.675 2167.792 M 68.675 2166.758 C 66.241 2166.798 64.261 2168.182 64.136 2169.931 C 64.011 2171.681 65.784 2173.203 68.2 2173.422 L 68.688 2173.422 C 71.122 2173.382 73.102 2171.998 73.226 2170.249 C 73.351 2168.499 71.579 2166.977 69.163 2166.758 L 68.675 2166.758 Z " fill="rgb(198,193,193)"/><path d=" M 322.65 2150.265 C 324.319 2150.27 325.73 2151.155 325.965 2152.343 C 326.2 2153.532 325.188 2154.664 323.587 2155.004 C 323.283 2155.069 322.967 2155.102 322.65 2155.103 C 320.981 2155.098 319.57 2154.213 319.335 2153.025 C 319.1 2151.836 320.112 2150.703 321.712 2150.364 C 322.017 2150.299 322.333 2150.265 322.65 2150.265 M 322.65 2149.186 C 320.556 2149.184 318.696 2150.147 318.033 2151.575 C 317.369 2153.004 318.051 2154.577 319.726 2155.482 C 321.4 2156.386 323.691 2156.418 325.412 2155.56 C 327.134 2154.703 327.899 2153.15 327.313 2151.704 C 326.715 2150.209 324.812 2149.181 322.65 2149.186 L 322.65 2149.186 Z " fill="rgb(198,193,193)"/><path d=" M 153.925 2084.49 L 153.925 2084.49 C 156.139 2084.498 158.081 2085.553 158.699 2087.082 C 159.317 2088.611 158.464 2090.251 156.602 2091.112 C 154.74 2091.974 152.313 2091.852 150.635 2090.813 C 148.958 2089.774 148.43 2088.065 149.338 2086.612 C 150.148 2085.314 151.947 2084.482 153.925 2084.49 M 153.925 2082.88 C 150.207 2082.882 147.09 2084.901 146.697 2087.561 C 146.305 2090.221 148.763 2092.666 152.397 2093.23 C 156.032 2093.794 159.672 2092.296 160.839 2089.756 C 162.006 2087.217 160.323 2084.453 156.938 2083.347 C 155.991 2083.039 154.964 2082.879 153.925 2082.88 Z " fill="rgb(198,193,193)"/><path d=" M 250.513 2194.052 L 250.513 2194.052 C 252.307 2194.278 253.615 2195.399 253.615 2196.709 C 253.615 2198.02 252.307 2199.141 250.513 2199.367 C 250.3 2199.38 250.087 2199.38 249.875 2199.367 C 248.146 2199.015 247.007 2197.83 247.159 2196.542 C 247.312 2195.254 248.713 2194.224 250.5 2194.088 M 250.5 2192.901 C 247.744 2192.924 245.464 2194.449 245.231 2196.424 C 244.998 2198.4 246.889 2200.18 249.6 2200.536 C 249.902 2200.572 250.207 2200.59 250.513 2200.59 C 253.363 2200.491 255.604 2198.799 255.604 2196.745 C 255.604 2194.692 253.363 2193 250.513 2192.901 L 250.5 2192.901 Z " fill="rgb(198,193,193)"/><path d=" M 65.487 2199.727 L 65.487 2199.727 C 67.4 2199.722 69.094 2200.615 69.666 2201.928 C 70.237 2203.242 69.552 2204.67 67.976 2205.45 C 66.4 2206.231 64.302 2206.182 62.8 2205.329 C 61.327 2204.508 60.746 2203.103 61.354 2201.835 C 61.962 2200.568 63.624 2199.72 65.487 2199.727 Z  M 65.487 2198.324 C 62.438 2198.332 59.842 2199.922 59.345 2202.087 C 58.847 2204.252 60.594 2206.358 63.478 2207.072 C 66.361 2207.786 69.54 2206.898 70.999 2204.972 C 72.458 2203.045 71.772 2200.642 69.375 2199.286 C 68.267 2198.659 66.897 2198.32 65.487 2198.324 Z " fill="rgb(198,193,193)"/><path d=" M 24.6 2305.989 L 24.6 2305.989 C 26.088 2305.986 27.359 2306.759 27.604 2307.814 C 27.849 2308.87 26.995 2309.898 25.586 2310.243 C 24.178 2310.587 22.629 2310.147 21.929 2309.203 C 21.228 2308.259 21.581 2307.089 22.762 2306.438 C 23.29 2306.147 23.935 2305.989 24.6 2305.989 Z  M 24.6 2305.017 C 22.563 2305.018 20.796 2306.028 20.331 2307.454 C 19.867 2308.881 20.828 2310.35 22.652 2311.001 C 24.476 2311.653 26.684 2311.315 27.983 2310.187 C 29.281 2309.058 29.33 2307.435 28.1 2306.267 C 27.271 2305.478 25.975 2305.015 24.6 2305.017 Z " fill="rgb(198,193,193)"/><path d=" M 171.55 2132.611 L 171.55 2132.611 C 174.408 2132.607 176.797 2134.175 177.052 2136.223 C 177.308 2138.271 175.345 2140.119 172.532 2140.481 C 169.719 2140.843 166.987 2139.598 166.241 2137.614 C 165.494 2135.629 166.98 2133.563 169.662 2132.854 C 170.267 2132.695 170.906 2132.613 171.55 2132.611 M 171.55 2130.813 C 168.076 2130.819 165.009 2132.444 163.97 2134.828 C 162.931 2137.213 164.161 2139.807 167.009 2141.238 C 169.857 2142.669 173.666 2142.606 176.42 2141.084 C 179.174 2139.561 180.239 2136.929 179.05 2134.581 C 177.905 2132.312 174.905 2130.805 171.55 2130.813 Z " fill="rgb(198,193,193)"/><path d=" M 173.275 2298.174 L 173.275 2298.174 C 174.57 2298.173 175.732 2298.744 176.202 2299.612 C 176.672 2300.48 176.352 2301.467 175.397 2302.096 C 174.442 2302.725 173.048 2302.867 171.887 2302.454 C 170.581 2301.99 169.892 2300.939 170.223 2299.918 C 170.553 2298.897 171.818 2298.175 173.275 2298.174 Z  M 173.275 2297.166 C 170.969 2297.159 169.022 2298.396 168.748 2300.043 C 168.475 2301.691 169.962 2303.224 172.205 2303.607 C 174.449 2303.99 176.735 2303.102 177.52 2301.542 C 178.305 2299.982 177.339 2298.247 175.275 2297.508 C 174.652 2297.289 173.968 2297.175 173.275 2297.175 L 173.275 2297.166 Z " fill="rgb(198,193,193)"/><path d=" M 130.85 2116.226 L 135.938 2120.273 L 128.438 2120.777 L 123.35 2116.73 L 130.85 2116.235 M 131.613 2114.832 L 119.412 2115.642 L 127.625 2122.179 L 139.825 2121.37 L 131.613 2114.832 L 131.613 2114.832 Z " fill="rgb(198,193,193)"/><path d=" M 18.175 2246.14 L 23.387 2250.106 L 22.137 2255.502 L 16.938 2251.536 L 18.188 2246.14 M 16.938 2243.262 L 14.863 2251.949 L 23.275 2258.352 L 25.35 2249.665 L 16.938 2243.262 Z " fill="rgb(198,193,193)"/><path d=" M 296.375 2301.996 L 306.462 2305.593 L 308.525 2313.561 L 298.438 2309.963 L 296.375 2301.996 Z  M 292.625 2298.398 L 295.95 2311.267 L 312.2 2317.077 L 308.875 2304.208 L 292.625 2298.398 L 292.625 2298.398 Z " fill="rgb(198,193,193)"/><path d=" M 69.488 2113.447 L 75 2114.85 L 76.75 2118.861 L 71.25 2117.458 L 69.5 2113.447 M 67.25 2111.784 L 70.087 2118.268 L 79 2120.525 L 76.163 2114.041 L 67.25 2111.784 Z " fill="rgb(198,193,193)"/><path d=" M 175.837 2250.115 L 176.625 2254.908 L 171.763 2258.244 L 170.975 2253.451 L 175.837 2250.115 Z  M 177.087 2247.615 L 169.237 2253.01 L 170.487 2260.762 L 178.337 2255.367 L 177.087 2247.615 Z " fill="rgb(198,193,193)"/><path d=" M 106.538 2200.131 L 111.862 2202.299 L 112.7 2206.633 L 107.375 2204.511 L 106.538 2200.176 M 104.637 2198.189 L 105.988 2205.194 L 114.6 2208.594 L 113.25 2201.588 L 104.65 2198.162 L 104.637 2198.189 Z " fill="rgb(198,193,193)"/><path d=" M 128.663 2310.773 L 126.163 2314.442 L 120.588 2315.206 L 123.088 2311.537 L 128.663 2310.773 Z  M 131.163 2309.406 L 122.163 2310.647 L 118.138 2316.573 L 127.137 2315.332 L 131.163 2309.406 Z " fill="rgb(198,193,193)"/><path d=" M 188.363 2174.798 L 182.113 2181.588 L 170.8 2182.046 L 177.05 2175.256 L 188.363 2174.798 Z  M 193.787 2172.568 L 175.5 2173.305 L 165.35 2184.313 L 183.638 2183.575 L 193.787 2172.604 L 193.787 2172.568 Z " fill="rgb(198,193,193)"/><path d=" M 43.975 2082.592 L 51.4 2088.141 L 49.688 2095.74 L 42.263 2090.191 L 43.987 2082.592 M 42.238 2078.545 L 39.45 2090.785 L 51.438 2099.778 L 54.212 2087.493 L 42.225 2078.5 L 42.238 2078.545 Z " fill="rgb(198,193,193)"/><path d=" M 22.387 2135.678 C 21.946 2135.685 21.532 2135.524 21.299 2135.255 C 21.065 2134.985 21.047 2134.647 21.25 2134.365 C 21.904 2133.311 23.155 2132.511 24.686 2132.167 C 26.216 2131.822 27.879 2131.968 29.25 2132.566 C 29.997 2132.901 30.909 2132.986 31.75 2132.797 C 32.59 2132.609 33.275 2132.167 33.625 2131.586 C 34.279 2130.533 35.53 2129.732 37.061 2129.388 C 38.591 2129.044 40.254 2129.189 41.625 2129.788 C 42.236 2130.036 42.451 2130.594 42.106 2131.033 C 41.761 2131.473 40.986 2131.628 40.375 2131.379 C 39.628 2131.044 38.716 2130.96 37.875 2131.148 C 37.035 2131.337 36.35 2131.779 36 2132.36 C 35.346 2133.413 34.095 2134.214 32.564 2134.558 C 31.034 2134.902 29.371 2134.757 28 2134.158 C 27.253 2133.823 26.341 2133.739 25.5 2133.927 C 24.66 2134.115 23.975 2134.558 23.625 2135.138 C 23.414 2135.489 22.917 2135.706 22.387 2135.678 Z " fill="rgb(198,193,193)"/><path d=" M 273.913 2175.203 L 273.913 2175.203 C 273.455 2175.188 273.098 2174.911 273.113 2174.582 C 273.147 2174.17 272.931 2173.768 272.521 2173.479 C 272.111 2173.191 271.546 2173.045 270.975 2173.08 C 269.933 2173.133 268.91 2172.861 268.165 2172.335 C 267.419 2171.809 267.022 2171.079 267.075 2170.328 C 267.107 2169.916 266.894 2169.514 266.488 2169.222 C 266.074 2168.935 265.511 2168.788 264.937 2168.817 C 264.479 2168.828 264.09 2168.579 264.05 2168.251 C 264.036 2168.091 264.112 2167.934 264.259 2167.814 C 264.407 2167.694 264.615 2167.622 264.837 2167.612 C 265.878 2167.569 266.898 2167.84 267.65 2168.359 C 268.393 2168.885 268.788 2169.615 268.738 2170.364 C 268.703 2170.776 268.919 2171.179 269.329 2171.467 C 269.739 2171.755 270.304 2171.901 270.875 2171.866 C 271.916 2171.823 272.935 2172.093 273.687 2172.613 C 274.43 2173.139 274.826 2173.869 274.775 2174.618 C 274.768 2174.778 274.674 2174.929 274.512 2175.039 C 274.35 2175.148 274.135 2175.207 273.913 2175.203 L 273.913 2175.203 Z " fill="rgb(198,193,193)"/><path d=" M 255.863 2290.431 C 255.482 2290.395 255.197 2290.162 255.197 2289.886 C 255.197 2289.611 255.482 2289.378 255.863 2289.342 C 256.383 2289.348 256.881 2289.191 257.227 2288.911 C 257.573 2288.631 257.732 2288.257 257.663 2287.886 C 257.536 2287.204 257.825 2286.517 258.455 2286 C 259.085 2285.483 259.994 2285.187 260.95 2285.188 C 261.47 2285.194 261.969 2285.036 262.314 2284.756 C 262.66 2284.476 262.819 2284.102 262.75 2283.731 C 262.764 2283.459 263.054 2283.236 263.43 2283.206 C 263.806 2283.177 264.155 2283.35 264.25 2283.614 C 264.38 2284.296 264.093 2284.985 263.462 2285.503 C 262.831 2286.02 261.919 2286.316 260.963 2286.312 C 260.442 2286.306 259.944 2286.463 259.598 2286.743 C 259.252 2287.023 259.093 2287.397 259.163 2287.769 C 259.289 2288.45 259 2289.137 258.37 2289.654 C 257.74 2290.171 256.831 2290.467 255.875 2290.467 L 255.863 2290.431 Z " fill="rgb(198,193,193)"/><path d=" M 60.525 2243.829 C 60.253 2243.826 59.99 2243.76 59.775 2243.64 C 58.603 2242.979 57.881 2241.987 57.793 2240.918 C 57.704 2239.848 58.258 2238.802 59.313 2238.046 C 59.899 2237.635 60.209 2237.06 60.161 2236.472 C 60.113 2235.883 59.712 2235.339 59.063 2234.979 C 57.89 2234.318 57.169 2233.327 57.08 2232.257 C 56.992 2231.188 57.545 2230.142 58.6 2229.386 C 59.08 2229.205 59.667 2229.267 60.054 2229.539 C 60.441 2229.812 60.541 2230.233 60.3 2230.582 C 59.709 2230.992 59.397 2231.567 59.445 2232.156 C 59.493 2232.746 59.897 2233.291 60.55 2233.648 C 61.722 2234.31 62.444 2235.301 62.532 2236.37 C 62.621 2237.44 62.067 2238.486 61.013 2239.242 C 60.422 2239.652 60.11 2240.227 60.158 2240.817 C 60.206 2241.406 60.609 2241.951 61.262 2242.309 C 61.602 2242.554 61.716 2242.917 61.556 2243.243 C 61.396 2243.569 60.99 2243.8 60.512 2243.838 L 60.525 2243.829 Z " fill="rgb(198,193,193)"/><path d=" M 73.438 2304.595 C 72.031 2304.599 70.666 2304.253 69.575 2303.614 C 68.221 2302.817 67.403 2301.643 67.325 2300.386 C 67.293 2299.693 66.844 2299.045 66.096 2298.608 C 65.348 2298.172 64.374 2297.99 63.425 2298.111 C 61.695 2298.318 59.925 2297.982 58.562 2297.187 C 57.2 2296.393 56.376 2295.216 56.3 2293.956 C 56.259 2293.4 56.852 2292.924 57.625 2292.895 C 58.398 2292.865 59.059 2293.292 59.1 2293.848 C 59.128 2294.542 59.575 2295.192 60.325 2295.629 C 61.074 2296.066 62.051 2296.247 63 2296.123 C 64.73 2295.916 66.5 2296.252 67.863 2297.047 C 69.225 2297.841 70.049 2299.017 70.125 2300.278 C 70.153 2300.972 70.6 2301.622 71.35 2302.059 C 72.099 2302.496 73.076 2302.677 74.025 2302.553 C 74.791 2302.469 75.508 2302.847 75.625 2303.399 C 75.742 2303.95 75.216 2304.465 74.45 2304.55 C 74.115 2304.583 73.776 2304.598 73.438 2304.595 Z " fill="rgb(198,193,193)"/><path d=" M 15.113 2166.893 L 15 2166.893 C 14.475 2166.893 14.05 2166.587 14.05 2166.209 C 14.05 2165.832 14.475 2165.526 15 2165.526 C 15.65 2165.555 16.285 2165.377 16.738 2165.04 C 17.187 2164.701 17.415 2164.24 17.363 2163.772 C 17.278 2162.921 17.7 2162.084 18.525 2161.47 C 19.357 2160.864 20.505 2160.538 21.688 2160.571 C 22.349 2160.598 22.994 2160.413 23.45 2160.066 C 23.905 2159.72 24.125 2159.246 24.05 2158.772 C 24.019 2158.395 24.419 2158.071 24.944 2158.048 C 25.468 2158.026 25.919 2158.314 25.95 2158.691 C 26.045 2159.544 25.625 2160.386 24.797 2161 C 23.969 2161.615 22.813 2161.943 21.625 2161.902 C 20.975 2161.874 20.341 2162.051 19.887 2162.387 C 19.439 2162.727 19.212 2163.188 19.262 2163.655 C 19.354 2164.489 18.953 2165.312 18.159 2165.923 C 17.365 2166.534 16.25 2166.876 15.087 2166.866 L 15.113 2166.893 Z " fill="rgb(198,193,193)"/><path d=" M 130.463 2173.305 C 129.715 2173.306 128.979 2173.17 128.325 2172.909 C 127.218 2172.465 126.427 2171.703 126.15 2170.814 C 126.007 2170.323 125.575 2169.901 124.966 2169.657 C 124.356 2169.414 123.63 2169.373 122.975 2169.546 C 121.777 2169.851 120.454 2169.771 119.342 2169.328 C 118.231 2168.884 117.437 2168.119 117.163 2167.226 C 117.035 2166.833 117.373 2166.441 117.919 2166.349 C 118.464 2166.257 119.01 2166.501 119.137 2166.893 C 119.292 2167.38 119.731 2167.794 120.342 2168.031 C 120.953 2168.267 121.676 2168.301 122.325 2168.125 C 123.523 2167.82 124.846 2167.899 125.958 2168.343 C 127.069 2168.787 127.863 2169.552 128.138 2170.445 C 128.28 2170.927 128.701 2171.342 129.296 2171.586 C 129.89 2171.829 130.601 2171.879 131.25 2171.722 C 131.782 2171.593 132.358 2171.798 132.537 2172.181 C 132.717 2172.563 132.432 2172.978 131.9 2173.107 C 131.438 2173.227 130.953 2173.294 130.463 2173.305 L 130.463 2173.305 Z " fill="rgb(198,193,193)"/><path d=" M 24.125 2205.788 C 23.797 2205.787 23.483 2205.693 23.25 2205.527 C 22.163 2204.752 21.592 2203.678 21.68 2202.579 C 21.769 2201.48 22.509 2200.461 23.712 2199.781 C 24.378 2199.411 24.788 2198.852 24.836 2198.248 C 24.884 2197.644 24.565 2197.055 23.963 2196.633 C 22.876 2195.858 22.304 2194.784 22.393 2193.685 C 22.481 2192.585 23.221 2191.566 24.425 2190.886 C 24.951 2190.695 25.591 2190.794 25.961 2191.123 C 26.332 2191.453 26.332 2191.923 25.963 2192.253 C 25.293 2192.621 24.88 2193.181 24.832 2193.786 C 24.784 2194.391 25.106 2194.981 25.712 2195.401 C 26.799 2196.176 27.371 2197.25 27.282 2198.349 C 27.194 2199.448 26.454 2200.468 25.25 2201.148 C 24.581 2201.515 24.168 2202.075 24.12 2202.68 C 24.072 2203.285 24.393 2203.875 25 2204.295 C 25.317 2204.554 25.401 2204.921 25.214 2205.239 C 25.028 2205.557 24.604 2205.771 24.125 2205.788 Z " fill="rgb(198,193,193)"/><path d=" M 202.712 2117.692 C 202.077 2117.691 201.446 2117.609 200.85 2117.449 C 200.239 2117.288 199.926 2116.801 200.15 2116.361 C 200.374 2115.921 201.052 2115.696 201.663 2115.857 C 202.416 2116.078 203.266 2116.049 203.988 2115.779 C 204.71 2115.509 205.231 2115.025 205.413 2114.454 C 205.77 2113.43 206.719 2112.565 208.021 2112.076 C 209.323 2111.588 210.853 2111.524 212.225 2111.9 C 212.977 2112.121 213.825 2112.094 214.547 2111.825 C 215.268 2111.557 215.79 2111.075 215.975 2110.506 C 216.082 2110.214 216.398 2109.985 216.804 2109.906 C 217.209 2109.826 217.643 2109.909 217.941 2110.122 C 218.239 2110.334 218.357 2110.646 218.25 2110.938 C 217.896 2111.964 216.947 2112.832 215.644 2113.32 C 214.341 2113.809 212.809 2113.871 211.437 2113.492 C 210.684 2113.275 209.836 2113.305 209.115 2113.575 C 208.395 2113.844 207.873 2114.326 207.687 2114.895 C 207.311 2115.931 206.331 2116.8 205 2117.278 C 204.294 2117.545 203.51 2117.687 202.712 2117.692 Z " fill="rgb(198,193,193)"/><path d=" M 267.35 2217.182 C 267.173 2217.183 267.003 2217.134 266.875 2217.047 L 262.337 2214.053 C 262.109 2213.859 262.116 2213.574 262.354 2213.386 C 262.592 2213.199 262.987 2213.168 263.275 2213.315 L 267.813 2216.31 C 268.054 2216.446 268.145 2216.679 268.036 2216.885 C 267.927 2217.092 267.644 2217.223 267.337 2217.209 L 267.35 2217.182 Z " fill="rgb(198,193,193)"/><path d=" M 118.875 2241.059 C 118.664 2241.058 118.464 2240.993 118.325 2240.879 L 114.025 2237.372 C 113.795 2237.151 113.839 2236.84 114.126 2236.657 C 114.413 2236.474 114.848 2236.479 115.125 2236.67 L 119.425 2240.168 C 119.633 2240.323 119.691 2240.554 119.57 2240.751 C 119.449 2240.948 119.175 2241.074 118.875 2241.068 L 118.875 2241.059 Z " fill="rgb(198,193,193)"/><path d=" M 88.675 2143.736 C 88.234 2143.733 87.864 2143.494 87.813 2143.179 C 87.763 2142.863 88.046 2142.57 88.475 2142.495 L 95.975 2141.245 C 96.29 2141.172 96.634 2141.234 96.866 2141.403 C 97.098 2141.573 97.176 2141.822 97.07 2142.047 C 96.964 2142.272 96.69 2142.435 96.362 2142.468 L 88.862 2143.718 L 88.675 2143.736 Z " fill="rgb(198,193,193)"/><path d=" M 245 2095.974 C 244.56 2095.995 244.175 2095.764 244.125 2095.449 C 244.075 2095.134 244.378 2094.846 244.813 2094.796 L 251.95 2093.564 C 252.238 2093.514 252.541 2093.578 252.745 2093.733 C 252.949 2093.887 253.023 2094.109 252.939 2094.313 C 252.855 2094.517 252.626 2094.674 252.337 2094.724 L 245.2 2095.956 L 245 2095.974 Z " fill="rgb(198,193,193)"/><path d=" M 339.8 2296.033 C 339.448 2296.032 339.143 2295.857 339.063 2295.611 L 337.5 2290.898 C 337.452 2290.62 337.702 2290.361 338.081 2290.297 C 338.459 2290.232 338.845 2290.383 338.975 2290.646 L 340.537 2295.35 C 340.632 2295.642 340.381 2295.935 339.975 2296.006 L 339.8 2296.033 Z " fill="rgb(198,193,193)"/><path d=" M 216.925 2301.357 C 216.633 2301.357 216.369 2301.234 216.25 2301.042 L 213.612 2296.726 C 213.447 2296.457 213.615 2296.143 213.988 2296.024 C 214.36 2295.905 214.797 2296.026 214.963 2296.294 L 217.6 2300.575 C 217.702 2300.739 217.681 2300.929 217.544 2301.08 C 217.408 2301.231 217.175 2301.321 216.925 2301.321 L 216.925 2301.357 Z " fill="rgb(198,193,193)"/><path d=" M 214.025 2267.948 C 213.335 2267.963 212.758 2267.572 212.738 2267.076 C 212.717 2266.579 213.26 2266.164 213.95 2266.149 L 224.813 2265.691 C 225.503 2265.661 226.096 2266.039 226.138 2266.536 C 226.179 2267.033 225.653 2267.459 224.963 2267.489 L 214.1 2267.948 L 214.025 2267.948 Z " fill="rgb(198,193,193)"/><path d=" M 142.85 2278.587 C 142.562 2278.588 142.308 2278.452 142.225 2278.254 L 140.588 2274.243 C 140.487 2273.995 140.686 2273.735 141.031 2273.663 C 141.376 2273.591 141.737 2273.734 141.838 2273.982 L 143.475 2277.975 C 143.525 2278.094 143.508 2278.223 143.425 2278.333 C 143.343 2278.443 143.204 2278.524 143.038 2278.56 L 142.85 2278.587 Z " fill="rgb(198,193,193)"/><path d=" M 346.25 2250.375 L 346.125 2250.375 L 336.65 2249.557 C 336.06 2249.505 335.64 2249.118 335.713 2248.694 C 335.785 2248.269 336.322 2247.967 336.912 2248.019 L 346.387 2248.838 C 346.981 2248.863 347.435 2249.229 347.4 2249.656 C 347.365 2250.083 346.856 2250.409 346.263 2250.384 L 346.25 2250.375 Z " fill="rgb(198,193,193)"/><path d=" M 299.4 2197.236 L 297.412 2195.815 L 307.437 2188.566 L 317.512 2195.77 L 315.537 2197.2 L 307.45 2191.408 L 299.4 2197.236 L 299.4 2197.236 Z " fill="rgb(198,193,193)"/><path d=" M 256.025 2253.892 L 254.225 2253.154 L 258.412 2247.875 L 251.087 2244.854 L 252.113 2243.559 L 261.25 2247.318 L 256.025 2253.892 L 256.025 2253.892 Z " fill="rgb(198,193,193)"/><path d=" M 197.65 2324.226 L 192.2 2318.75 L 193.7 2317.976 L 198.075 2322.374 L 204.175 2319.226 L 205.25 2320.305 L 197.65 2324.226 L 197.65 2324.226 Z " fill="rgb(198,193,193)"/><path d=" M 290.812 2125.021 L 280.825 2123.663 L 282.712 2116.478 L 284.675 2116.748 L 283.162 2122.521 L 291.187 2123.609 L 290.812 2125.021 L 290.812 2125.021 Z " fill="rgb(198,193,193)"/><path d=" M 207.75 2087.457 L 198 2081.567 L 199.613 2080.191 L 207.45 2084.912 L 214.013 2079.274 L 215.938 2080.434 L 207.75 2087.457 L 207.75 2087.457 Z " fill="rgb(198,193,193)"/><path d=" M 215.912 2161.983 L 214.662 2156.83 L 207.5 2157.729 L 207.2 2156.47 L 216.112 2155.355 L 217.663 2161.758 L 215.912 2161.983 L 215.912 2161.983 Z " fill="rgb(198,193,193)"/><path d=" M 341.637 2090.497 L 333.838 2086.045 L 335.05 2084.939 L 341.325 2088.518 L 346.287 2084.004 L 347.825 2084.885 L 341.637 2090.497 L 341.637 2090.497 Z " fill="rgb(198,193,193)"/><path d=" M 257.025 2320.629 L 253.225 2315.494 L 246.087 2318.228 L 245.15 2316.969 L 254.037 2313.561 L 258.775 2319.955 L 257.025 2320.629 L 257.025 2320.629 Z " fill="rgb(198,193,193)"/><path d=" M 301.25 2264.279 L 291.475 2257.3 L 293.375 2255.915 L 301.225 2261.518 L 309.013 2255.87 L 310.938 2257.237 L 301.25 2264.279 L 301.25 2264.279 Z " fill="rgb(198,193,193)"/><g opacity="0.9"><rect x="0" y="2071" width="360" height="259" transform="matrix(1,0,0,1,0,0)" fill="rgb(2,4,20)"/></g></g></svg>