<?xml version="1.0" standalone="no"?><!-- Generator: Gravit.io --><svg xmlns="http://www.w3.org/2000/svg" xmlns:xlink="http://www.w3.org/1999/xlink" style="isolation:isolate" viewBox="230.4 1310.5 16 16" width="16" height="16"><path d=" M 236.259 1323.193 L 235.449 1323.998 C 234.748 1324.693 233.606 1324.693 232.904 1323.998 C 232.568 1323.664 232.383 1323.219 232.383 1322.746 C 232.383 1322.273 232.569 1321.83 232.904 1321.494 L 235.884 1318.539 C 236.501 1317.926 237.663 1317.024 238.51 1317.864 C 238.899 1318.25 239.526 1318.248 239.913 1317.859 C 240.298 1317.47 240.296 1316.842 239.907 1316.457 C 238.469 1315.029 236.341 1315.293 234.488 1317.132 L 231.508 1320.088 C 230.793 1320.797 230.4 1321.742 230.4 1322.746 C 230.4 1323.752 230.794 1324.695 231.508 1325.404 C 232.244 1326.134 233.21 1326.5 234.177 1326.5 C 235.144 1326.5 236.111 1326.135 236.846 1325.404 L 237.657 1324.599 C 238.046 1324.214 238.048 1323.587 237.662 1323.199 C 237.275 1322.811 236.648 1322.809 236.259 1323.193 Z  M 245.291 1311.709 C 243.744 1310.175 241.582 1310.092 240.152 1311.512 L 239.143 1312.514 C 238.754 1312.9 238.751 1313.527 239.137 1313.915 C 239.523 1314.304 240.15 1314.306 240.539 1313.92 L 241.549 1312.919 C 242.289 1312.183 243.26 1312.488 243.895 1313.116 C 244.231 1313.451 244.417 1313.895 244.417 1314.368 C 244.417 1314.841 244.231 1315.285 243.895 1315.619 L 240.715 1318.773 C 239.261 1320.214 238.579 1319.539 238.288 1319.25 C 237.899 1318.864 237.272 1318.867 236.887 1319.255 C 236.501 1319.644 236.503 1320.272 236.892 1320.656 C 237.56 1321.318 238.322 1321.646 239.12 1321.646 C 240.097 1321.646 241.13 1321.154 242.113 1320.179 L 245.293 1317.026 C 246.005 1316.316 246.4 1315.372 246.4 1314.368 C 246.4 1313.363 246.005 1312.419 245.291 1311.709 Z " fill="rgb(103,58,183)"/></svg>