<svg id="logo-giftplush" xmlns="http://www.w3.org/2000/svg" xmlns:xlink="http://www.w3.org/1999/xlink" viewBox="612 391 244 93">
  <defs>
    <style>
      .cls-1 {
        fill: #1a1d1e;
        font-size: 48px;
        font-family: Comfortaa-Bold, Comfortaa;
        font-weight: 700;
        letter-spacing: 0.052em;
      }

      .cls-2 {
        fill: #673ab7;
      }

      .cls-3 {
        fill: #f65757;
      }

      .cls-4 {
        fill: #ffe374;
      }

      .cls-5 {
        fill: #1662fc;
      }

      .cls-6, .cls-7 {
        fill: #fff;
      }

      .cls-7 {
        fill-rule: evenodd;
      }

      .cls-8 {
        filter: url(#Path_14);
      }

      .cls-9 {
        filter: url(#Path_16);
      }

      .cls-10 {
        filter: url(#Path_12);
      }

      .cls-11 {
        filter: url(#Path_11);
      }

      .cls-12 {
        filter: url(#Path_10);
      }
    </style>
    <filter id="Path_10" x="693.25" y="460.066" width="4.134" height="16.756" filterUnits="userSpaceOnUse">
      <feOffset dy="1" input="SourceAlpha"/>
      <feGaussianBlur stdDeviation="0.25" result="blur"/>
      <feFlood flood-opacity="0.2"/>
      <feComposite operator="in" in2="blur"/>
      <feComposite in="SourceGraphic"/>
    </filter>
    <filter id="Path_11" x="697.349" y="460" width="5.965" height="16.741" filterUnits="userSpaceOnUse">
      <feOffset dy="1" input="SourceAlpha"/>
      <feGaussianBlur stdDeviation="0.25" result="blur-2"/>
      <feFlood flood-opacity="0.2"/>
      <feComposite operator="in" in2="blur-2"/>
      <feComposite in="SourceGraphic"/>
    </filter>
    <filter id="Path_12" x="617.25" y="464" width="21.099" height="9.35" filterUnits="userSpaceOnUse">
      <feOffset dy="1" input="SourceAlpha"/>
      <feGaussianBlur stdDeviation="0.25" result="blur-3"/>
      <feFlood flood-opacity="0.2"/>
      <feComposite operator="in" in2="blur-3"/>
      <feComposite in="SourceGraphic"/>
    </filter>
    <filter id="Path_16" x="831.25" y="459" width="14.503" height="19.242" filterUnits="userSpaceOnUse">
      <feOffset dy="1" input="SourceAlpha"/>
      <feGaussianBlur stdDeviation="0.25" result="blur-4"/>
      <feFlood flood-opacity="0.2"/>
      <feComposite operator="in" in2="blur-4"/>
      <feComposite in="SourceGraphic"/>
    </filter>
    <filter id="Path_14" x="757.25" y="463" width="23.138" height="12.14" filterUnits="userSpaceOnUse">
      <feOffset dy="1" input="SourceAlpha"/>
      <feGaussianBlur stdDeviation="0.25" result="blur-5"/>
      <feFlood flood-opacity="0.2"/>
      <feComposite operator="in" in2="blur-5"/>
      <feComposite in="SourceGraphic"/>
    </filter>
  </defs>
  <text id="giftplush" class="cls-1" transform="translate(612 433)"><tspan x="0" y="0">giftplush</tspan></text>
  <circle id="Ellipse_1" data-name="Ellipse 1" class="cls-2" cx="16" cy="16" r="16" transform="translate(612 452)"/>
  <circle id="Ellipse_2" data-name="Ellipse 2" class="cls-3" cx="16" cy="16" r="16" transform="translate(682 452)"/>
  <circle id="Ellipse_3" data-name="Ellipse 3" class="cls-4" cx="16" cy="16" r="16" transform="translate(753 452)"/>
  <circle id="Ellipse_4" data-name="Ellipse 4" class="cls-5" cx="16" cy="16" r="16" transform="translate(823 452)"/>
  <g id="noun_900669_cc" transform="translate(660.862 437.897)">
    <g class="cls-12" transform="matrix(1, 0, 0, 1, -660.86, -437.9)">
      <path id="Path_10-2" data-name="Path 10" class="cls-6" d="M35.772,22.359V36.95s-.209.415-.579.415-.9-.032-.9-.032-.264-.16-.264-.351.177-6.806.177-6.806-1.073-.217-1.073-2.774C33.138,24.315,33.595,23.019,35.772,22.359Z" transform="translate(660.86 437.71)"/>
    </g>
    <g class="cls-11" transform="matrix(1, 0, 0, 1, -660.86, -437.9)">
      <path id="Path_11-2" data-name="Path 11" class="cls-6" d="M52.578,22.162v5.309H51.8V22.1H50.779v5.368H50V22.162a1.607,1.607,0,0,0-.943,1.568v3.7a1.482,1.482,0,0,0,1.264,1.629h.218v7.678a.425.425,0,0,0,.413.362h.733S52,36.93,52,36.748V29.054h.254a1.483,1.483,0,0,0,1.265-1.629V23.731A1.608,1.608,0,0,0,52.578,22.162Z" transform="translate(649.04 437.9)"/>
    </g>
  </g>
  <g id="noun_547306_cc" transform="translate(604.6 422.5)">
    <g id="Group_13" data-name="Group 13" transform="translate(13.4 41.5)">
      <g class="cls-10" transform="matrix(1, 0, 0, 1, -618, -464)">
        <path id="Path_12-2" data-name="Path 12" class="cls-6" d="M32.451,41.834,30.295,41.5l-4.057,1.849-7.78-1.386-1.361.514,5.186,2.645L17.97,47.1l-2.9-.1-1.669.642,3,1.464,2.259-.359a21.945,21.945,0,0,0,4.236-1.13L29.319,45.2a10.206,10.206,0,0,0,3.518-2.259A.671.671,0,0,0,32.451,41.834Z" transform="translate(604.6 422.5)"/>
      </g>
    </g>
  </g>
  <g id="noun_1091260_cc" transform="translate(826.503 454.746)">
    <g class="cls-9" transform="matrix(1, 0, 0, 1, -826.5, -454.75)">
      <path id="Path_16-2" data-name="Path 16" class="cls-6" d="M40.175,24.577a.523.523,0,0,0-.525-.525H37.26v-.991a3.061,3.061,0,1,0-6.122,0v.991H28.747a.523.523,0,0,0-.525.525L27.7,35.917a1.525,1.525,0,0,0,1.545,1.574h9.912A1.543,1.543,0,0,0,40.7,35.917Zm-8.134-1.516a2.157,2.157,0,1,1,4.315,0v.991H32.042Zm-.466,3.673a.671.671,0,1,1,.671-.671A.643.643,0,0,1,31.575,26.734Zm5.247,0a.671.671,0,1,1,.671-.671A.678.678,0,0,1,36.823,26.734Z" transform="translate(804.3 439)"/>
    </g>
  </g>
  <g id="noun_1250103_cc" transform="translate(768.338 496.964)">
    <g id="Group_14" data-name="Group 14" transform="translate(-10.338 -33.964)">
      <path id="Path_13" data-name="Path 13" class="cls-7" d="M.1.217H19.5V1.874H.1Z" transform="translate(2.142 4.657)"/>
      <g class="cls-8" transform="matrix(1, 0, 0, 1, -758, -463)">
        <path id="Path_14-2" data-name="Path 14" class="cls-7" d="M1.949,0H0V10.39H.535V9.942H21.1v.448h.535V6.823H1.949V0Z" transform="translate(758 463)"/>
      </g>
      <path id="Path_15" data-name="Path 15" class="cls-7" d="M.1.366a5.383,5.383,0,0,1,2.871,0v.762H.1V.366Z" transform="translate(2.142 3.672)"/>
    </g>
  </g>
</svg>
