<svg xmlns="http://www.w3.org/2000/svg" viewBox="-18103 -3889 24 24">
  <defs>
    <style>
      .cls-1 {
        fill: #0065ff;
      }
    </style>
  </defs>
  <g id="settings-gear-63" transform="translate(-18104 -3890)">
    <path id="Path_230" data-name="Path 230" class="cls-1" d="M25,15.182V10.818H21.441a8.692,8.692,0,0,0-.929-2.245l2.516-2.516L19.943,2.972,17.427,5.488a8.692,8.692,0,0,0-2.245-.929V1H10.818V4.559a8.692,8.692,0,0,0-2.245.929L6.057,2.972,2.972,6.057,5.488,8.573a8.692,8.692,0,0,0-.929,2.245H1v4.364H4.559a8.692,8.692,0,0,0,.929,2.245L2.972,19.943l3.085,3.085,2.516-2.516a8.676,8.676,0,0,0,2.245.929V25h4.364V21.441a8.692,8.692,0,0,0,2.245-.929l2.516,2.516,3.085-3.085-2.516-2.516a8.676,8.676,0,0,0,.929-2.245H25ZM13,16.273A3.273,3.273,0,1,1,16.273,13,3.273,3.273,0,0,1,13,16.273Z"/>
  </g>
</svg>
