<?xml version="1.0" standalone="no"?><!-- Generator: Gravit.io --><svg xmlns="http://www.w3.org/2000/svg" xmlns:xlink="http://www.w3.org/1999/xlink" style="isolation:isolate" viewBox="70 428 22 22" width="22" height="22"><g id="settings-gear-63"><path d=" M 92 441 L 92 437 L 88.738 437 C 88.549 436.268 88.261 435.578 87.886 434.942 L 90.192 432.636 L 87.364 429.808 L 85.058 432.114 C 84.422 431.739 83.732 431.451 83 431.262 L 83 428 L 79 428 L 79 431.262 C 78.268 431.451 77.578 431.739 76.942 432.114 L 74.636 429.808 L 71.808 432.636 L 74.114 434.942 C 73.739 435.578 73.451 436.268 73.262 437 L 70 437 L 70 441 L 73.262 441 C 73.451 441.732 73.739 442.422 74.114 443.058 L 71.808 445.364 L 74.636 448.192 L 76.942 445.886 C 77.577 446.261 78.268 446.549 79 446.738 L 79 450 L 83 450 L 83 446.738 C 83.732 446.549 84.422 446.261 85.058 445.886 L 87.364 448.192 L 90.192 445.364 L 87.886 443.058 C 88.261 442.423 88.549 441.732 88.738 441 L 92 441 Z  M 81 442 C 79.343 442 78 440.657 78 439 C 78 437.343 79.343 436 81 436 C 82.657 436 84 437.343 84 439 C 84 440.657 82.657 442 81 442 Z " fill="rgb(121,121,121)"/></g></svg>