<svg xmlns="http://www.w3.org/2000/svg" viewBox="-18818 -3890 24 24">
  <defs>
    <style>
      .cls-1 {
        fill: #394861;
      }
    </style>
  </defs>
  <g id="dashboard-level" transform="translate(-18819 -3891)">
    <path id="Path_215" data-name="Path 215" class="cls-1" d="M23.522,8.609a.522.522,0,0,0,.522-.522V6.522a.522.522,0,1,0-1.043,0V8.087A.522.522,0,0,0,23.522,8.609Z" transform="translate(-10.522 -2.391)"/>
    <path id="Path_216" data-name="Path 216" class="cls-1" d="M33.052,12.977a.522.522,0,0,0,.738,0L34.9,11.871a.522.522,0,0,0-.738-.738L33.052,12.24A.522.522,0,0,0,33.052,12.977Z" transform="translate(-15.256 -4.773)"/>
    <path id="Path_217" data-name="Path 217" class="cls-1" d="M37,23.522a.522.522,0,0,0,.522.522h1.565a.522.522,0,1,0,0-1.043H37.522A.522.522,0,0,0,37,23.522Z" transform="translate(-17.217 -10.522)"/>
    <path id="Path_218" data-name="Path 218" class="cls-1" d="M12.977,12.977a.522.522,0,0,1-.738,0l-1.107-1.107a.522.522,0,0,1,.738-.738l1.107,1.107A.522.522,0,0,1,12.977,12.977Z" transform="translate(-4.773 -4.773)"/>
    <path id="Path_219" data-name="Path 219" class="cls-1" d="M8.609,23.522a.522.522,0,0,1-.522.522H6.522a.522.522,0,1,1,0-1.043H8.087A.522.522,0,0,1,8.609,23.522Z" transform="translate(-2.391 -10.522)"/>
    <path id="Path_220" data-name="Path 220" class="cls-1" d="M19.259,14.074a51.228,51.228,0,0,0,1.061,5.853,1.565,1.565,0,1,0,2.825-1.349A51.33,51.33,0,0,0,19.259,14.074Z" transform="translate(-8.733 -6.253)"/>
    <path id="Path_221" data-name="Path 221" class="cls-1" d="M13,1A12,12,0,1,0,25,13,12.014,12.014,0,0,0,13,1ZM2.871,17.174a10.957,10.957,0,1,1,20.257,0Z"/>
  </g>
</svg>
