<?xml version="1.0" standalone="no"?><!-- Generator: Gravit.io --><svg xmlns="http://www.w3.org/2000/svg" xmlns:xlink="http://www.w3.org/1999/xlink" style="isolation:isolate" viewBox="613 4391.5 18 18" width="18" height="18"><path d=" M 629 4391.5 L 615 4391.5 C 613.9 4391.5 613 4392.4 613 4393.5 L 613 4407.5 C 613 4408.601 613.9 4409.5 615 4409.5 L 622 4409.5 L 622 4402.5 L 620 4402.5 L 620 4400.025 L 622 4400.025 L 622 4397.975 C 622 4395.811 623.212 4394.291 625.766 4394.291 L 627.569 4394.293 L 627.569 4396.898 L 626.372 4396.898 C 625.378 4396.898 625 4397.644 625 4398.336 L 625 4400.026 L 627.568 4400.026 L 627 4402.5 L 625 4402.5 L 625 4409.5 L 629 4409.5 C 630.1 4409.5 631 4408.601 631 4407.5 L 631 4393.5 C 631 4392.4 630.1 4391.5 629 4391.5 Z " fill="rgb(136,153,161)"/></svg>