<svg xmlns="http://www.w3.org/2000/svg" viewBox="-18356 3458 36 36">
  <defs>
    <style>
      .cls-1 {
        fill: #394861;
      }
    </style>
  </defs>
  <path id="mail-with-circle" class="cls-1" d="M18.4.4a18,18,0,1,0,18,18A18,18,0,0,0,18.4.4ZM11.334,12.775h14.1c.748,0,.363.959-.044,1.206l-6.25,3.777a1.62,1.62,0,0,1-1.51,0l-6.25-3.777C10.972,13.735,10.587,12.775,11.334,12.775ZM25.9,23.088a1.085,1.085,0,0,1-.833.938H11.733a1.085,1.085,0,0,1-.833-.937V16.25c0-.172,0-.4.322-.205.462.271,6.123,3.609,6.406,3.776a1.621,1.621,0,0,0,1.51,0l6.439-3.775c.325-.191.322.033.322.205Z" transform="translate(-18356.4 3457.6)"/>
</svg>
