<svg xmlns="http://www.w3.org/2000/svg" viewBox="-18413 3458 36 36">
  <defs>
    <style>
      .cls-1 {
        fill: #394861;
      }
    </style>
  </defs>
  <path id="twitter-with-circle" class="cls-1" d="M18.4.4a18,18,0,1,0,18,18A18,18,0,0,0,18.4.4Zm7.322,14.745c.007.154.009.307.009.458a10.08,10.08,0,0,1-15.519,8.5,6.972,6.972,0,0,0,.846.047,7.1,7.1,0,0,0,4.4-1.517,3.552,3.552,0,0,1-3.311-2.46,3.692,3.692,0,0,0,.666.062,3.562,3.562,0,0,0,.934-.124A3.548,3.548,0,0,1,10.9,16.63v-.043a3.555,3.555,0,0,0,1.607.444,3.553,3.553,0,0,1-1.1-4.736A10.08,10.08,0,0,0,18.721,16a3.5,3.5,0,0,1-.092-.81,3.546,3.546,0,0,1,6.133-2.424,7.12,7.12,0,0,0,2.25-.861,3.562,3.562,0,0,1-1.558,1.963,7.122,7.122,0,0,0,2.036-.561A7.188,7.188,0,0,1,25.722,15.145Z" transform="translate(-18413.4 3457.6)"/>
</svg>
