<?xml version="1.0" standalone="no"?><!-- Generator: Gravit.io --><svg xmlns="http://www.w3.org/2000/svg" xmlns:xlink="http://www.w3.org/1999/xlink" style="isolation:isolate" viewBox="-2 0 364 890" width="364" height="890"><g id="null"><defs><filter id="sDQQhJRKjPAkSXRPLVHWsbVvBES5hp8P" x="-200%" y="-200%" width="400%" height="400%"><feOffset xmlns="http://www.w3.org/2000/svg" in="SourceAlpha" result="offOut" dx="0" dy="2"/><feGaussianBlur xmlns="http://www.w3.org/2000/svg" in="offOut" result="blurOut" stdDeviation="1"/><feComponentTransfer xmlns="http://www.w3.org/2000/svg" in="blurOut" result="opacOut"><feFuncA xmlns="http://www.w3.org/2000/svg" type="table" tableValues="0 0.5"/></feComponentTransfer><feBlend xmlns="http://www.w3.org/2000/svg" in="SourceGraphic" in2="opacOut" mode="normal"/></filter></defs><g filter="url(#sDQQhJRKjPAkSXRPLVHWsbVvBES5hp8P)"><rect x="0" y="0" width="360" height="48" transform="matrix(1,0,0,1,0,0)" fill="rgb(255,255,255)"/></g><g id="ic_arrow_back_24px"><path d=" M 32 26 L 19.83 26 L 25.42 20.41 L 24 19 L 16 27 L 24 35 L 25.41 33.59 L 19.83 28 L 32 28 L 32 26 Z " fill="rgb(68,68,68)"/></g><g id="null"><g transform="matrix(1,0,0,0.966,64,16)"><text transform="matrix(1,0,0,1,0,17.946)" style="font-family:&quot;Circular Std&quot;;font-weight:500;font-size:18px;font-style:normal;fill:#484848;stroke:none;">Customise voucher</text></g></g></g><g id="null"><g transform="matrix(1,0,0,1,16,257)"><text transform="matrix(1,0,0,1,0,13.958)" style="font-family:&quot;Circular Std&quot;;font-weight:400;font-size:14px;font-style:normal;fill:#484848;stroke:none;">To</text></g><g id="null"><g id="null"><path d="M 18.051 283 L 341.949 283 C 343.081 283 344 283.919 344 285.051 L 344 318.949 C 344 320.081 343.081 321 341.949 321 L 18.051 321 C 16.919 321 16 320.081 16 318.949 L 16 285.051 C 16 283.919 16.919 283 18.051 283 Z" style="stroke:none;fill:#FFFFFF;stroke-miterlimit:10;"/><path d="M 18.051 283 L 341.949 283 C 343.081 283 344 283.919 344 285.051 L 344 318.949 C 344 320.081 343.081 321 341.949 321 L 18.051 321 C 16.919 321 16 320.081 16 318.949 L 16 285.051 C 16 283.919 16.919 283 18.051 283 Z" style="fill:none;stroke:#DBDBDB;stroke-width:1;stroke-linecap:square;stroke-miterlimit:3;"/></g><g transform="matrix(1,0,0,1,32,294.41)"><text transform="matrix(1,0,0,1,0,11.964)" style="font-family:&quot;Circular Std&quot;;font-weight:400;font-size:12px;font-style:normal;fill:#797979;stroke:none;">Recipient's email address</text></g></g></g><g id="null"><g transform="matrix(1,0,0,1,16,337)"><text transform="matrix(1,0,0,1,0,13.958)" style="font-family:&quot;Circular Std&quot;;font-weight:400;font-size:14px;font-style:normal;fill:#484848;stroke:none;">From</text></g><g id="null"><g id="null"><path d="M 18.051 363 L 341.949 363 C 343.081 363 344 363.919 344 365.051 L 344 398.949 C 344 400.081 343.081 401 341.949 401 L 18.051 401 C 16.919 401 16 400.081 16 398.949 L 16 365.051 C 16 363.919 16.919 363 18.051 363 Z" style="stroke:none;fill:#FFFFFF;stroke-linecap:square;stroke-miterlimit:3;"/><path d="M 18.051 363 L 341.949 363 C 343.081 363 344 363.919 344 365.051 L 344 398.949 C 344 400.081 343.081 401 341.949 401 L 18.051 401 C 16.919 401 16 400.081 16 398.949 L 16 365.051 C 16 363.919 16.919 363 18.051 363 Z" style="fill:none;stroke:#DBDBDB;stroke-width:1;stroke-linecap:square;stroke-miterlimit:3;"/></g><g transform="matrix(1,0,0,1,32,374.41)"><text transform="matrix(1,0,0,1,0,11.964)" style="font-family:&quot;Circular Std&quot;;font-weight:400;font-size:12px;font-style:normal;fill:#797979;stroke:none;">Your name</text></g></g></g><rect x="50.5" y="740.5" width="1" height="38" transform="matrix(1,0,0,1,0,0)" fill="rgb(235,235,235)"/><g id="null"><g transform="matrix(1,0,0,1,16,635)"><text transform="matrix(1,0,0,1,0,13.958)" style="font-family:&quot;Circular Std&quot;;font-weight:400;font-size:14px;font-style:normal;fill:#484848;stroke:none;">Quantity</text></g><g id="null"><g id="null"><path d="M 18.051 661 L 341.949 661 C 343.081 661 344 661.919 344 663.051 L 344 696.949 C 344 698.081 343.081 699 341.949 699 L 18.051 699 C 16.919 699 16 698.081 16 696.949 L 16 663.051 C 16 661.919 16.919 661 18.051 661 Z" style="stroke:none;fill:#FFFFFF;stroke-linecap:square;stroke-miterlimit:3;"/><path d="M 18.051 661 L 341.949 661 C 343.081 661 344 661.919 344 663.051 L 344 696.949 C 344 698.081 343.081 699 341.949 699 L 18.051 699 C 16.919 699 16 698.081 16 696.949 L 16 663.051 C 16 661.919 16.919 661 18.051 661 Z" style="fill:none;stroke:#DBDBDB;stroke-width:1;stroke-linecap:square;stroke-miterlimit:3;"/></g><g transform="matrix(1,0,0,1,32,672.41)"><text transform="matrix(1,0,0,1,0,11.964)" style="font-family:&quot;Circular Std&quot;;font-weight:400;font-size:12px;font-style:normal;fill:#797979;stroke:none;">How many vouchers are you purchasing</text></g></g></g><g id="null"><g transform="matrix(1,0,0,1,16,715)"><text transform="matrix(1,0,0,1,0,13.958)" style="font-family:&quot;Circular Std&quot;;font-weight:400;font-size:14px;font-style:normal;fill:#484848;stroke:none;">Delivery date</text></g><g id="null"><g id="null"><path d="M 18.051 741 L 341.949 741 C 343.081 741 344 741.919 344 743.051 L 344 776.949 C 344 778.081 343.081 779 341.949 779 L 18.051 779 C 16.919 779 16 778.081 16 776.949 L 16 743.051 C 16 741.919 16.919 741 18.051 741 Z" style="stroke:none;fill:#FFFFFF;stroke-linecap:square;stroke-miterlimit:3;"/><path d="M 18.051 741 L 341.949 741 C 343.081 741 344 741.919 344 743.051 L 344 776.949 C 344 778.081 343.081 779 341.949 779 L 18.051 779 C 16.919 779 16 778.081 16 776.949 L 16 743.051 C 16 741.919 16.919 741 18.051 741 Z" style="fill:none;stroke:#DBDBDB;stroke-width:1;stroke-linecap:square;stroke-miterlimit:3;"/></g><g transform="matrix(1,0,0,1,67,752.41)"><text transform="matrix(1,0,0,1,0,11.964)" style="font-family:&quot;Circular Std&quot;;font-weight:400;font-size:12px;font-style:normal;fill:#797979;stroke:none;">How many vouchers are you purchasing</text></g></g></g><g id="null"><g id="null"><g id="null"><path d="M 18 443 L 342 443 C 343.104 443 344 443.896 344 445 L 344 591 C 344 592.104 343.104 593 342 593 L 18 593 C 16.896 593 16 592.104 16 591 L 16 445 C 16 443.896 16.896 443 18 443 Z" style="stroke:none;fill:#FFFFFF;stroke-linecap:square;stroke-miterlimit:3;"/><path d="M 18 443 L 342 443 C 343.104 443 344 443.896 344 445 L 344 591 C 344 592.104 343.104 593 342 593 L 18 593 C 16.896 593 16 592.104 16 591 L 16 445 C 16 443.896 16.896 443 18 443 Z" style="fill:none;stroke:#DBDBDB;stroke-width:1.0388150415966655;stroke-linecap:square;stroke-miterlimit:3;"/></g><g transform="matrix(1,0,0,1,32,454.41)"><text transform="matrix(1,0,0,1,0,11.964)" style="font-family:&quot;Circular Std&quot;;font-weight:400;font-size:12px;font-style:normal;fill:#797979;stroke:none;">Hope you enjoy this amazing gift voucher!</text></g></g></g><g transform="matrix(1,0,0,0.96,16,56)"><text transform="matrix(1,0,0,1,0,13.958)" style="font-family:&quot;Circular Std&quot;;font-weight:400;font-size:14px;font-style:normal;fill:#484848;stroke:none;">Amount</text></g><g transform="matrix(1,0,0,1,15,137)"><text transform="matrix(1,0,0,1,0,13.958)" style="font-family:&quot;Circular Std&quot;;font-weight:400;font-size:14px;font-style:normal;fill:#484848;stroke:none;">Delivery</text></g><g id="null"><path d="M 17.552 89 L 75.448 89 C 76.304 89 77 89.696 77 90.552 L 77 119.448 C 77 120.304 76.304 121 75.448 121 L 17.552 121 C 16.696 121 16 120.304 16 119.448 L 16 90.552 C 16 89.696 16.696 89 17.552 89 Z" style="stroke:none;fill:#FFFFFF;stroke-linecap:square;stroke-miterlimit:3;"/><path d="M 17.552 89 L 75.448 89 C 76.304 89 77 89.696 77 90.552 L 77 119.448 C 77 120.304 76.304 121 75.448 121 L 17.552 121 C 16.696 121 16 120.304 16 119.448 L 16 90.552 C 16 89.696 16.696 89 17.552 89 Z" style="fill:none;stroke:#DBDBDB;stroke-width:1;stroke-linecap:square;stroke-miterlimit:3;"/><g id="null"><g transform="matrix(1,0,0,1,24,96.829)"><text transform="matrix(1,0,0,1,0,12.826)" style="font-family:&quot;Noto Sans&quot;;font-weight:400;font-size:12px;font-style:normal;fill:#484848;stroke:none;">₦</text></g><g transform="matrix(1,0,0,1,37,97.41)"><text transform="matrix(1,0,0,1,0,11.964)" style="font-family:&quot;Circular Std&quot;;font-weight:400;font-size:12px;font-style:normal;fill:#484848;stroke:none;">1,000</text></g></g></g><g id="null"><path d="M 86.552 89 L 144.448 89 C 145.304 89 146 89.696 146 90.552 L 146 119.448 C 146 120.304 145.304 121 144.448 121 L 86.552 121 C 85.696 121 85 120.304 85 119.448 L 85 90.552 C 85 89.696 85.696 89 86.552 89 Z" style="stroke:none;fill:#FFFFFF;stroke-linecap:square;stroke-miterlimit:3;"/><path d="M 86.552 89 L 144.448 89 C 145.304 89 146 89.696 146 90.552 L 146 119.448 C 146 120.304 145.304 121 144.448 121 L 86.552 121 C 85.696 121 85 120.304 85 119.448 L 85 90.552 C 85 89.696 85.696 89 86.552 89 Z" style="fill:none;stroke:#DBDBDB;stroke-width:1;stroke-linecap:square;stroke-miterlimit:3;"/><g id="null"><g transform="matrix(1,0,0,1,91.5,96.829)"><text transform="matrix(1,0,0,1,0,12.826)" style="font-family:&quot;Noto Sans&quot;;font-weight:400;font-size:12px;font-style:normal;fill:#484848;stroke:none;">₦</text></g><g transform="matrix(1,0,0,1,104.5,97.41)"><text transform="matrix(1,0,0,1,0,11.964)" style="font-family:&quot;Circular Std&quot;;font-weight:400;font-size:12px;font-style:normal;fill:#484848;stroke:none;">5,000</text></g></g></g><g id="null"><path d="M 155.552 89 L 213.448 89 C 214.304 89 215 89.696 215 90.552 L 215 119.448 C 215 120.304 214.304 121 213.448 121 L 155.552 121 C 154.696 121 154 120.304 154 119.448 L 154 90.552 C 154 89.696 154.696 89 155.552 89 Z" style="stroke:none;fill:#FFFFFF;stroke-linecap:square;stroke-miterlimit:3;"/><path d="M 155.552 89 L 213.448 89 C 214.304 89 215 89.696 215 90.552 L 215 119.448 C 215 120.304 214.304 121 213.448 121 L 155.552 121 C 154.696 121 154 120.304 154 119.448 L 154 90.552 C 154 89.696 154.696 89 155.552 89 Z" style="fill:none;stroke:#DBDBDB;stroke-width:1;stroke-linecap:square;stroke-miterlimit:3;"/><g id="null"><g transform="matrix(1,0,0,1,158,96.829)"><text transform="matrix(1,0,0,1,0,12.826)" style="font-family:&quot;Noto Sans&quot;;font-weight:400;font-size:12px;font-style:normal;fill:#484848;stroke:none;">₦</text></g><g transform="matrix(1,0,0,1,171,97.41)"><text transform="matrix(1,0,0,1,0,11.964)" style="font-family:&quot;Circular Std&quot;;font-weight:400;font-size:12px;font-style:normal;fill:#484848;stroke:none;">10,000</text></g></g></g><g id="null"><g id="null"><defs><linearGradient id="_lgradient_4" x1="0" y1="0.5" x2="1" y2="0.5"><stop offset="0%" style="stop-color:#A83AB7"/><stop offset="100%" style="stop-color:#673AB7"/></linearGradient></defs><path d="M 18.667 171 L 173.333 171 C 174.805 171 176 172.195 176 173.667 L 176 204.333 C 176 205.805 174.805 207 173.333 207 L 18.667 207 C 17.195 207 16 205.805 16 204.333 L 16 173.667 C 16 172.195 17.195 171 18.667 171 Z" style="stroke:none;fill:url(#_lgradient_4);stroke-linecap:square;stroke-miterlimit:3;"/><path d="M 18.667 171 L 173.333 171 C 174.805 171 176 172.195 176 173.667 L 176 204.333 C 176 205.805 174.805 207 173.333 207 L 18.667 207 C 17.195 207 16 205.805 16 204.333 L 16 173.667 C 16 172.195 17.195 171 18.667 171 Z" style="fill:none;stroke:#DBDBDB;stroke-width:1;stroke-linecap:square;stroke-miterlimit:3;"/><g transform="matrix(1,0,0,1,77.5,180.145)"><text transform="matrix(1,0,0,1,0,13.958)" style="font-family:&quot;Circular Std&quot;;font-weight:400;font-size:14px;font-style:normal;fill:#ffffff;stroke:none;">Email</text></g></g><g id="null"><path d="M 186.667 171 L 341.333 171 C 342.805 171 344 172.195 344 173.667 L 344 204.333 C 344 205.805 342.805 207 341.333 207 L 186.667 207 C 185.195 207 184 205.805 184 204.333 L 184 173.667 C 184 172.195 185.195 171 186.667 171 Z" style="stroke:none;fill:#FFFFFF;stroke-linecap:square;stroke-miterlimit:3;"/><path d="M 186.667 171 L 341.333 171 C 342.805 171 344 172.195 344 173.667 L 344 204.333 C 344 205.805 342.805 207 341.333 207 L 186.667 207 C 185.195 207 184 205.805 184 204.333 L 184 173.667 C 184 172.195 185.195 171 186.667 171 Z" style="fill:none;stroke:#DBDBDB;stroke-width:1;stroke-linecap:square;stroke-miterlimit:3;"/><g transform="matrix(1,0,0,1,219.5,180.145)"><text transform="matrix(1,0,0,1,0,13.958)" style="font-family:&quot;Circular Std&quot;;font-weight:400;font-size:14px;font-style:normal;fill:#484848;stroke:none;">Text message</text></g></g></g><g transform="matrix(1,0,0,1,16,601)"><text transform="matrix(1,0,0,1,0,11.964)" style="font-family:&quot;Circular Std&quot;;font-weight:400;font-size:12px;font-style:normal;fill:#797979;stroke:none;">463 characters remaining</text></g><g id="calendar-60"><linearGradient id="_lgradient_5" x1="0%" y1="50%" x2="100%" y2="50%"><stop offset="0%" stop-opacity="1" style="stop-color:rgb(168,58,183)"/><stop offset="100%" stop-opacity="1" style="stop-color:rgb(103,58,183)"/></linearGradient><path d=" M 24.5 769.75 C 24.5 770.164 24.836 770.5 25.25 770.5 L 41.75 770.5 C 42.164 770.5 42.5 770.164 42.5 769.75 L 42.5 759.25 L 24.5 759.25 L 24.5 769.75 Z " fill="url(#_lgradient_5)"/><linearGradient id="_lgradient_6" x1="0%" y1="50%" x2="100%" y2="50%"><stop offset="0%" stop-opacity="1" style="stop-color:rgb(168,58,183)"/><stop offset="100%" stop-opacity="1" style="stop-color:rgb(103,58,183)"/></linearGradient><path d=" M 42.5 754.75 C 42.5 754.336 42.164 754 41.75 754 L 39.5 754 L 39.5 753.25 C 39.5 752.836 39.164 752.5 38.75 752.5 L 35.75 752.5 C 35.336 752.5 35 752.836 35 753.25 L 35 754 L 32 754 L 32 753.25 C 32 752.836 31.664 752.5 31.25 752.5 L 28.25 752.5 C 27.836 752.5 27.5 752.836 27.5 753.25 L 27.5 754 L 25.25 754 C 24.836 754 24.5 754.336 24.5 754.75 L 24.5 757.75 L 42.5 757.75 L 42.5 754.75 Z  M 30.5 756.25 L 29 756.25 L 29 754 L 30.5 754 L 30.5 756.25 Z  M 38 756.25 L 36.5 756.25 L 36.5 754 L 38 754 L 38 756.25 Z " fill="url(#_lgradient_6)"/></g><g id="null"><g id="ic_check_box_outline_blank_24px"><path d=" M 32 225 L 32 239 L 18 239 L 18 225 L 32 225 Z  M 32 223 L 18 223 C 16.9 223 16 223.9 16 225 L 16 239 C 16 240.1 16.9 241 18 241 L 32 241 C 33.1 241 34 240.1 34 239 L 34 225 C 34 223.9 33.1 223 32 223 Z " fill="rgb(219,219,219)" vector-effect="non-scaling-stroke" stroke-width="1" stroke="rgb(219,219,219)" stroke-linejoin="miter" stroke-linecap="butt" stroke-miterlimit="4"/></g><g transform="matrix(1,0,0,1,42,223.145)"><text transform="matrix(1,0,0,1,0,13.958)" style="font-family:&quot;Circular Std&quot;;font-weight:400;font-size:14px;font-style:normal;fill:#484848;stroke:none;">Send anonymously</text></g></g><g id="null"><g id="ic_check_box_outline_blank_24px"><path d=" M 229 225 L 229 239 L 215 239 L 215 225 L 229 225 Z  M 229 223 L 215 223 C 213.9 223 213 223.9 213 225 L 213 239 C 213 240.1 213.9 241 215 241 L 229 241 C 230.1 241 231 240.1 231 239 L 231 225 C 231 223.9 230.1 223 229 223 Z " fill="rgb(219,219,219)" vector-effect="non-scaling-stroke" stroke-width="1" stroke="rgb(219,219,219)" stroke-linejoin="miter" stroke-linecap="butt" stroke-miterlimit="4"/></g><g transform="matrix(1,0,0,1,239,223.145)"><text transform="matrix(1,0,0,1,0,13.958)" style="font-family:&quot;Circular Std&quot;;font-weight:400;font-size:14px;font-style:normal;fill:#484848;stroke:none;">Send to yourself</text></g></g><g transform="matrix(1,0,0,1,16,417)"><text transform="matrix(1,0,0,1,0,13.958)" style="font-family:&quot;Circular Std&quot;;font-weight:400;font-size:14px;font-style:normal;fill:#484848;stroke:none;">Message</text></g><g id="null"><defs><linearGradient id="_lgradient_7" x1="0" y1="0.5" x2="1" y2="0.5"><stop offset="0%" style="stop-color:#A83AB7"/><stop offset="100%" style="stop-color:#673AB7"/></linearGradient></defs><path d="M 17.974 816 L 342.026 816 C 343.115 816 344 816.885 344 817.974 L 344 852.026 C 344 853.115 343.115 854 342.026 854 L 17.974 854 C 16.885 854 16 853.115 16 852.026 L 16 817.974 C 16 816.885 16.885 816 17.974 816 Z" style="stroke:none;fill:url(#_lgradient_7);stroke-linecap:square;stroke-miterlimit:3;"/><g transform="matrix(1,0,0,1,163.5,826.145)"><text transform="matrix(1,0,0,1,0,13.958)" style="font-family:&quot;Circular Std&quot;;font-weight:400;font-size:14px;font-style:normal;fill:#ffffff;stroke:none;">Save</text></g></g><g id="null"><g id="null"><path d="M 225.186 89 L 341.814 89 C 343.02 89 344 89.98 344 91.186 L 344 118.814 C 344 120.02 343.02 121 341.814 121 L 225.186 121 C 223.98 121 223 120.02 223 118.814 L 223 91.186 C 223 89.98 223.98 89 225.186 89 Z" style="stroke:none;fill:#FFFFFF;stroke-linecap:square;stroke-miterlimit:3;"/><path d="M 225.186 89 L 341.814 89 C 343.02 89 344 89.98 344 91.186 L 344 118.814 C 344 120.02 343.02 121 341.814 121 L 225.186 121 C 223.98 121 223 120.02 223 118.814 L 223 91.186 C 223 89.98 223.98 89 225.186 89 Z" style="fill:none;stroke:#DBDBDB;stroke-width:1.008368346731032;stroke-linecap:square;stroke-miterlimit:3;"/><g transform="matrix(1,0,0,1,231,97.41)"><text transform="matrix(1,0,0,1,0,11.964)" style="font-family:&quot;Circular Std&quot;;font-weight:400;font-size:12px;font-style:normal;fill:#dbdbdb;stroke:none;">Enter amount</text></g></g><rect x="231" y="93" width="1" height="24" transform="matrix(1,0,0,1,0,0)" fill="rgb(235,235,235)"/></g></svg>