<?xml version="1.0" standalone="no"?><!-- Generator: Gravit.io --><svg xmlns="http://www.w3.org/2000/svg" xmlns:xlink="http://www.w3.org/1999/xlink" style="isolation:isolate" viewBox="18.5 1308 18 18" width="18" height="18"><g id="ic_call_24px"><path d=" M 22.12 1315.79 C 23.56 1318.62 25.88 1320.93 28.71 1322.38 L 30.91 1320.18 C 31.18 1319.91 31.58 1319.82 31.93 1319.94 C 33.05 1320.31 34.26 1320.51 35.5 1320.51 C 36.05 1320.51 36.5 1320.96 36.5 1321.51 L 36.5 1325 C 36.5 1325.55 36.05 1326 35.5 1326 C 26.11 1326 18.5 1318.39 18.5 1309 C 18.5 1308.45 18.95 1308 19.5 1308 L 23 1308 C 23.55 1308 24 1308.45 24 1309 C 24 1310.25 24.2 1311.45 24.57 1312.57 C 24.68 1312.92 24.6 1313.31 24.32 1313.59 L 22.12 1315.79 Z " fill="rgb(103,58,183)"/></g></svg>