<?xml version="1.0" standalone="no"?><!-- Generator: Gravit.io --><svg xmlns="http://www.w3.org/2000/svg" xmlns:xlink="http://www.w3.org/1999/xlink" style="isolation:isolate" viewBox="24 153.5 16 16" width="16" height="16"><g id="preferences"><path d=" M 39.333 155.5 L 31.333 155.5 L 31.333 156.833 L 39.333 156.833 C 39.701 156.833 40 156.535 40 156.167 C 40 155.799 39.701 155.5 39.333 155.5 Z " fill="rgb(103,58,183)"/><path d=" M 24.667 156.833 L 26 156.833 L 26 158.167 C 26 158.535 26.299 158.833 26.667 158.833 L 29.333 158.833 C 29.701 158.833 30 158.535 30 158.167 L 30 154.167 C 30 153.799 29.701 153.5 29.333 153.5 L 26.667 153.5 C 26.299 153.5 26 153.799 26 154.167 L 26 155.5 L 24.667 155.5 C 24.299 155.5 24 155.799 24 156.167 C 24 156.535 24.299 156.833 24.667 156.833 Z " fill="rgb(103,58,183)"/><path d=" M 39.333 160.833 L 38 160.833 L 38 162.167 L 39.333 162.167 C 39.701 162.167 40 161.868 40 161.5 C 40 161.132 39.701 160.833 39.333 160.833 Z " fill="rgb(103,58,183)"/><path d=" M 24.667 162.167 L 32.667 162.167 L 32.667 163.5 C 32.667 163.868 32.965 164.167 33.333 164.167 L 36 164.167 C 36.368 164.167 36.667 163.868 36.667 163.5 L 36.667 159.5 C 36.667 159.132 36.368 158.833 36 158.833 L 33.333 158.833 C 32.965 158.833 32.667 159.132 32.667 159.5 L 32.667 160.833 L 24.667 160.833 C 24.299 160.833 24 161.132 24 161.5 C 24 161.868 24.299 162.167 24.667 162.167 Z " fill="rgb(103,58,183)"/><path d=" M 39.333 166.167 L 31.333 166.167 L 31.333 167.5 L 39.333 167.5 C 39.701 167.5 40 167.201 40 166.833 C 40 166.465 39.701 166.167 39.333 166.167 Z " fill="rgb(103,58,183)"/><path d=" M 29.333 164.167 L 26.667 164.167 C 26.299 164.167 26 164.465 26 164.833 L 26 166.167 L 24.667 166.167 C 24.299 166.167 24 166.465 24 166.833 C 24 167.201 24.299 167.5 24.667 167.5 L 26 167.5 L 26 168.833 C 26 169.201 26.299 169.5 26.667 169.5 L 29.333 169.5 C 29.701 169.5 30 169.201 30 168.833 L 30 164.833 C 30 164.465 29.701 164.167 29.333 164.167 Z " fill="rgb(103,58,183)"/></g></svg>