<?xml version="1.0" standalone="no"?><!-- Generator: Gravit.io --><svg xmlns="http://www.w3.org/2000/svg" xmlns:xlink="http://www.w3.org/1999/xlink" style="isolation:isolate" viewBox="673.8 4393.024 18.4 14.952" width="18.4" height="14.952"><path d=" M 690.316 4396.746 C 690.324 4396.908 690.327 4397.072 690.327 4397.234 C 690.327 4402.224 686.53 4407.976 679.587 4407.976 C 677.454 4407.976 675.471 4407.351 673.8 4406.279 C 674.096 4406.314 674.396 4406.332 674.7 4406.332 C 676.47 4406.332 678.097 4405.728 679.388 4404.717 C 677.737 4404.686 676.342 4403.596 675.862 4402.096 C 676.092 4402.139 676.329 4402.162 676.572 4402.162 C 676.917 4402.162 677.251 4402.117 677.567 4402.031 C 675.84 4401.683 674.539 4400.158 674.539 4398.328 C 674.539 4398.312 674.539 4398.297 674.539 4398.281 C 675.048 4398.564 675.631 4398.734 676.249 4398.754 C 675.236 4398.076 674.569 4396.922 674.569 4395.611 C 674.569 4394.92 674.755 4394.271 675.081 4393.713 C 676.942 4395.998 679.725 4397.5 682.862 4397.658 C 682.798 4397.381 682.765 4397.094 682.765 4396.797 C 682.765 4394.713 684.454 4393.024 686.539 4393.024 C 687.625 4393.024 688.606 4393.481 689.295 4394.215 C 690.154 4394.045 690.962 4393.731 691.692 4393.299 C 691.41 4394.18 690.811 4394.92 690.032 4395.387 C 690.796 4395.295 691.522 4395.094 692.2 4394.793 C 691.694 4395.551 691.054 4396.215 690.316 4396.746 Z " fill="rgb(136,153,161)"/></svg>