<svg xmlns="http://www.w3.org/2000/svg" xmlns:xlink="http://www.w3.org/1999/xlink" style="isolation:isolate" viewBox="735 4391.5 18 18" width="18" height="18"><path d=" M 752.946 4396.789 C 752.931 4396.043 752.789 4395.304 752.528 4394.605 C 752.302 4394.004 751.947 4393.46 751.489 4393.011 C 751.04 4392.553 750.496 4392.198 749.895 4391.972 C 749.196 4391.711 748.457 4391.569 747.711 4391.554 C 746.751 4391.51 746.444 4391.5 744 4391.5 C 741.556 4391.5 741.249 4391.51 740.289 4391.554 C 739.543 4391.569 738.804 4391.711 738.105 4391.972 C 737.504 4392.198 736.96 4392.553 736.511 4393.011 C 736.053 4393.46 735.698 4394.004 735.472 4394.605 C 735.211 4395.304 735.069 4396.043 735.054 4396.789 C 735.01 4397.749 735 4398.056 735 4400.5 C 735 4402.944 735.01 4403.251 735.054 4404.211 C 735.069 4404.957 735.211 4405.696 735.472 4406.395 C 735.698 4406.996 736.053 4407.54 736.511 4407.989 C 736.96 4408.447 737.504 4408.802 738.105 4409.028 C 738.804 4409.289 739.543 4409.431 740.289 4409.446 C 741.249 4409.49 741.556 4409.5 744 4409.5 C 746.444 4409.5 746.751 4409.49 747.711 4409.446 C 748.457 4409.431 749.196 4409.289 749.895 4409.028 C 751.104 4408.56 752.06 4407.604 752.528 4406.395 C 752.789 4405.696 752.931 4404.957 752.946 4404.211 C 752.99 4403.251 753 4402.944 753 4400.5 C 753 4398.056 752.99 4397.749 752.946 4396.789 Z  M 751.326 4404.137 C 751.319 4404.707 751.214 4405.273 751.016 4405.808 C 750.713 4406.593 750.093 4407.213 749.308 4407.516 C 748.773 4407.714 748.207 4407.819 747.637 4407.826 C 746.688 4407.869 746.403 4407.878 744 4407.878 C 741.597 4407.878 741.312 4407.869 740.363 4407.826 C 739.793 4407.819 739.227 4407.714 738.692 4407.516 C 738.301 4407.372 737.948 4407.142 737.657 4406.843 C 737.358 4406.552 737.128 4406.199 736.984 4405.808 C 736.786 4405.273 736.681 4404.707 736.674 4404.137 C 736.631 4403.188 736.622 4402.903 736.622 4400.5 C 736.622 4398.097 736.631 4397.812 736.674 4396.863 C 736.681 4396.293 736.786 4395.727 736.984 4395.192 C 737.128 4394.801 737.358 4394.448 737.657 4394.157 C 737.948 4393.858 738.301 4393.628 738.692 4393.484 C 739.227 4393.286 739.793 4393.181 740.363 4393.174 C 741.312 4393.131 741.597 4393.122 744 4393.122 C 746.403 4393.122 746.688 4393.131 747.637 4393.174 C 748.207 4393.181 748.773 4393.286 749.308 4393.484 C 749.699 4393.628 750.052 4393.858 750.343 4394.157 C 750.642 4394.448 750.872 4394.801 751.016 4395.192 C 751.214 4395.727 751.319 4396.293 751.326 4396.863 C 751.369 4397.812 751.378 4398.097 751.378 4400.5 C 751.378 4402.903 751.369 4403.188 751.326 4404.137 Z  M 744 4395.878 C 741.448 4395.878 739.378 4397.948 739.378 4400.5 C 739.378 4403.052 741.448 4405.122 744 4405.122 C 746.552 4405.122 748.622 4403.052 748.622 4400.5 C 748.622 4397.948 746.552 4395.878 744 4395.878 L 744 4395.878 Z  M 744 4403.5 C 742.343 4403.5 741 4402.157 741 4400.5 C 741 4398.843 742.343 4397.5 744 4397.5 C 745.657 4397.5 747 4398.843 747 4400.5 C 747 4402.157 745.657 4403.5 744 4403.5 Z  M 749.884 4395.696 C 749.884 4396.292 749.401 4396.776 748.804 4396.776 C 748.208 4396.776 747.724 4396.292 747.724 4395.696 C 747.724 4395.099 748.208 4394.616 748.804 4394.616 C 749.091 4394.616 749.365 4394.73 749.568 4394.932 C 749.77 4395.135 749.884 4395.409 749.884 4395.696 Z " fill="rgba(0,0,0,0.54)"/></svg>